<svg xmlns="http://www.w3.org/2000/svg" xmlns:xlink="http://www.w3.org/1999/xlink" id="Component_4_17" data-name="Component 4 &#x2013; 17" width="241.24" height="59.144" viewBox="0 0 241.24 59.144"><defs><clipPath id="clip-path"><rect id="Rectangle_7" data-name="Rectangle 7" width="241.24" height="59.144" fill="#fff"></rect></clipPath></defs><g id="Group_3" data-name="Group 3" clip-path="url(#clip-path)"><path id="Path_1" data-name="Path 1" d="M25.332,46.848l.726-2.526a12.552,12.552,0,0,0,9.032,4.01c3.912,0,6.573-2.407,6.573-5.694,0-3.851-3.467-5.573-6.452-6.936l-2.017-.882c-3.186-1.443-7.42-3.528-7.42-8.3,0-4.409,3.67-7.7,9.275-7.7a17.891,17.891,0,0,1,8.226,2.125l-.646,2.244a11.586,11.586,0,0,0-8.024-3.728c-3.75,0-5.887,2.326-5.887,5.132,0,3.448,3.064,4.972,6.29,6.455l2.017.923c3.63,1.684,7.54,3.608,7.54,8.58,0,5.012-4.154,8.417-9.84,8.417a24.243,24.243,0,0,1-9.394-2.122" transform="translate(-5.274 -4.004)" fill="#fff"></path><rect id="Rectangle_3" data-name="Rectangle 3" width="4.113" height="29.186" transform="translate(43.405 15.3)" fill="#fff"></rect><path id="Path_2" data-name="Path 2" d="M78.219,31.783,87.574,43.53V49.5h-.2L75.517,34.75l-2.662,3.688c-3.228,4.572-4.4,7.776-4.878,10.183H63.7A104.922,104.922,0,0,0,72.251,38l2.743-3.889L63.219,19.434H68.38l9.315,11.71,1.128-1.569c3.228-4.531,5.121-7.738,5.807-10.143h3.185a114.134,114.134,0,0,0-8.347,10.586Z" transform="translate(-13.161 -4.134)" fill="#fff"></path><path id="Path_3" data-name="Path 3" d="M117.683,22.282H117.6a17.742,17.742,0,0,0-7.9-2.125h-.93V48.621h-4.113V20.16h-.968a17.727,17.727,0,0,0-7.9,2.126H95.7l.565-2.848h20.888Z" transform="translate(-19.924 -4.135)" fill="#fff"></path><path id="Path_4" data-name="Path 4" d="M150.167,19.434V48.62h-4.113V33.783H131.7V48.62h-4.113V19.434H131.7V33.066h14.356V19.434Z" transform="translate(-26.561 -4.134)" fill="#fff"></path><path id="Path_5" data-name="Path 5" d="M187.348,44.767v4.611h-.162l-5.283-4.45c-2.42,2.607-6.008,4.05-10.4,4.05-5.686,0-10-2.967-10-7.775,0-3.649,2.541-6.375,6.574-8.019-1.938-1.964-3.509-4.25-3.509-7.133,0-4.208,3.468-7.216,7.7-7.216,4.032,0,7.5,2.686,7.5,6.334,0,3.769-3.467,5.734-6.331,6.575l-.443-.4c2.54-1.163,4.113-3.087,4.113-5.894,0-3.566-2.057-6.053-5.041-6.053-3.265,0-4.8,2.726-4.8,5.131,0,3.288,2.984,5.853,5,7.537l11.25,9.462a14.189,14.189,0,0,0,1.17-5.893,9.811,9.811,0,0,0-1.33-4.891l1.976-.762h.161v4.85a15.734,15.734,0,0,1-1.533,7.1Zm-5.928-.24-10.686-8.98c-.725-.6-1.532-1.284-2.258-1.965a7.378,7.378,0,0,0-3.468,6.495,7.493,7.493,0,0,0,7.863,7.817,11.965,11.965,0,0,0,8.549-3.369Z" transform="translate(-33.622 -4.007)" fill="#fff"></path><path id="Path_6" data-name="Path 6" d="M219.762,44.412V49.5h-.242l-11.936-13.23a2.246,2.246,0,0,0-2.1-.842h-2.7v13.19h-4.113V19.434h7.218c7.742,0,11.9,2.407,11.9,7.378,0,4.129-3.228,6.294-7.057,7.618Zm-6.129-17.321c0-4.25-2.583-7.016-7.9-7.016h-2.942V34.549a30.285,30.285,0,0,0,3.71.24C210.891,34.79,213.633,31.262,213.633,27.092Z" transform="translate(-41.361 -4.134)" fill="#fff"></path><rect id="Rectangle_4" data-name="Rectangle 4" width="4.113" height="29.186" transform="translate(182.151 15.3)" fill="#fff"></rect><path id="Path_7" data-name="Path 7" d="M240.787,34.179c0-9.381,6.775-15.356,15.525-15.356,8.388,0,15,5.573,15,14.794,0,9.382-6.775,15.355-15.525,15.355-8.388,0-15-5.572-15-14.794m26.009-.12c0-8.74-4.476-14.594-10.807-14.594-6.492,0-10.686,5.693-10.686,14.273,0,8.74,4.476,14.593,10.929,14.593,6.371,0,10.565-5.652,10.565-14.271Z" transform="translate(-50.128 -4.004)" fill="#fff"></path><rect id="Rectangle_5" data-name="Rectangle 5" width="241.24" height="0.756" fill="#fff"></rect><rect id="Rectangle_6" data-name="Rectangle 6" width="241.24" height="0.756" transform="translate(0 58.389)" fill="#fff"></rect></g></svg>